<?xml version="1.0" encoding="UTF-8" standalone="no"?>
<!DOCTYPE svg PUBLIC "-//W3C//DTD SVG 1.1//EN"
 "http://www.w3.org/Graphics/SVG/1.1/DTD/svg11.dtd">
<!-- Generated by graphviz version 2.40.1 (20161225.0304)
 -->
<!-- Title: public.supplier_goods Pages: 1 -->
<svg width="803pt" height="682pt"
 viewBox="0.00 0.00 803.00 682.00" xmlns="http://www.w3.org/2000/svg" xmlns:xlink="http://www.w3.org/1999/xlink">
<g id="graph0" class="graph" transform="scale(1 1) rotate(0) translate(4 678)">
<title>public.supplier_goods</title>
<polygon fill="#ffffff" stroke="transparent" points="-4,4 -4,-678 799,-678 799,4 -4,4"/>
<!-- public.supplier_goods -->
<g id="node1" class="node">
<title>public.supplier_goods</title>
<polygon fill="#efefef" stroke="transparent" points="268,-592.5 268,-627.5 553,-627.5 553,-592.5 268,-592.5"/>
<polygon fill="none" stroke="#000000" points="268,-592.5 268,-627.5 553,-627.5 553,-592.5 268,-592.5"/>
<text text-anchor="start" x="274.8503" y="-605.3" font-family="Arial Bold" font-size="18.00" fill="#000000">public.supplier_goods</text>
<text text-anchor="start" x="448.8959" y="-605.3" font-family="Arial" font-size="14.00" fill="#000000"> </text>
<text text-anchor="start" x="452.7865" y="-605.3" font-family="Arial" font-size="14.00" fill="#666666">[BASE TABLE]</text>
<polygon fill="none" stroke="#000000" points="268,-562.5 268,-592.5 553,-592.5 553,-562.5 268,-562.5"/>
<text text-anchor="start" x="275" y="-573.9" font-family="Arial" font-size="14.00" fill="#000000">supplier_id </text>
<text text-anchor="start" x="346.5666" y="-573.9" font-family="Arial" font-size="14.00" fill="#666666">[integer]</text>
<polygon fill="none" stroke="#000000" points="268,-532.5 268,-562.5 553,-562.5 553,-532.5 268,-532.5"/>
<text text-anchor="start" x="275" y="-543.9" font-family="Arial" font-size="14.00" fill="#000000">good_id </text>
<text text-anchor="start" x="328.6928" y="-543.9" font-family="Arial" font-size="14.00" fill="#666666">[integer]</text>
<polygon fill="none" stroke="#000000" points="268,-502.5 268,-532.5 553,-532.5 553,-502.5 268,-502.5"/>
<text text-anchor="start" x="275" y="-513.9" font-family="Arial" font-size="14.00" fill="#000000">price </text>
<text text-anchor="start" x="309.223" y="-513.9" font-family="Arial" font-size="14.00" fill="#666666">[numeric(2,0)]</text>
<polygon fill="none" stroke="#000000" points="268,-472.5 268,-502.5 553,-502.5 553,-472.5 268,-472.5"/>
<text text-anchor="start" x="275" y="-483.9" font-family="Arial" font-size="14.00" fill="#000000">delivery_time </text>
<text text-anchor="start" x="361.3352" y="-483.9" font-family="Arial" font-size="14.00" fill="#666666">[integer]</text>
<polygon fill="none" stroke="#000000" points="268,-442.5 268,-472.5 553,-472.5 553,-442.5 268,-442.5"/>
<text text-anchor="start" x="275" y="-453.9" font-family="Arial" font-size="14.00" fill="#000000">available </text>
<text text-anchor="start" x="334.1234" y="-453.9" font-family="Arial" font-size="14.00" fill="#666666">[boolean]</text>
<polygon fill="none" stroke="#000000" points="268,-412.5 268,-442.5 553,-442.5 553,-412.5 268,-412.5"/>
<text text-anchor="start" x="275" y="-423.9" font-family="Arial" font-size="14.00" fill="#000000">inserted_on </text>
<text text-anchor="start" x="352.0266" y="-423.9" font-family="Arial" font-size="14.00" fill="#666666">[date]</text>
<polygon fill="none" stroke="#000000" stroke-width="3" points="266,-411.5 266,-629.5 554,-629.5 554,-411.5 266,-411.5"/>
</g>
<!-- public.suppliers -->
<g id="node2" class="node">
<title>public.suppliers</title>
<polygon fill="#efefef" stroke="transparent" points="130,-252.5 130,-287.5 365,-287.5 365,-252.5 130,-252.5"/>
<polygon fill="none" stroke="#000000" points="130,-252.5 130,-287.5 365,-287.5 365,-252.5 130,-252.5"/>
<text text-anchor="start" x="136.8658" y="-265.3" font-family="Arial Bold" font-size="18.00" fill="#000000">public.suppliers</text>
<text text-anchor="start" x="260.8804" y="-265.3" font-family="Arial" font-size="14.00" fill="#000000"> </text>
<text text-anchor="start" x="264.771" y="-265.3" font-family="Arial" font-size="14.00" fill="#666666">[BASE TABLE]</text>
<polygon fill="none" stroke="#000000" points="130,-222.5 130,-252.5 365,-252.5 365,-222.5 130,-222.5"/>
<text text-anchor="start" x="137" y="-233.9" font-family="Arial" font-size="14.00" fill="#000000">id </text>
<text text-anchor="start" x="151.7798" y="-233.9" font-family="Arial" font-size="14.00" fill="#666666">[integer]</text>
<polygon fill="none" stroke="#000000" points="130,-192.5 130,-222.5 365,-222.5 365,-192.5 130,-192.5"/>
<text text-anchor="start" x="137" y="-203.9" font-family="Arial" font-size="14.00" fill="#000000">name </text>
<text text-anchor="start" x="175.899" y="-203.9" font-family="Arial" font-size="14.00" fill="#666666">[varchar]</text>
<polygon fill="none" stroke="#000000" points="130,-162.5 130,-192.5 365,-192.5 365,-162.5 130,-162.5"/>
<text text-anchor="start" x="137" y="-173.9" font-family="Arial" font-size="14.00" fill="#000000">industry </text>
<text text-anchor="start" x="189.8962" y="-173.9" font-family="Arial" font-size="14.00" fill="#666666">[varchar]</text>
<polygon fill="none" stroke="#000000" points="130,-132.5 130,-162.5 365,-162.5 365,-132.5 130,-132.5"/>
<text text-anchor="start" x="137" y="-143.9" font-family="Arial" font-size="14.00" fill="#000000">country </text>
<text text-anchor="start" x="186.7896" y="-143.9" font-family="Arial" font-size="14.00" fill="#666666">[varchar]</text>
<polygon fill="none" stroke="#000000" points="130,-102.5 130,-132.5 365,-132.5 365,-102.5 130,-102.5"/>
<text text-anchor="start" x="137" y="-113.9" font-family="Arial" font-size="14.00" fill="#000000">contact_name </text>
<text text-anchor="start" x="228.8106" y="-113.9" font-family="Arial" font-size="14.00" fill="#666666">[varchar]</text>
<polygon fill="none" stroke="#000000" points="130,-72.5 130,-102.5 365,-102.5 365,-72.5 130,-72.5"/>
<text text-anchor="start" x="137" y="-83.9" font-family="Arial" font-size="14.00" fill="#000000">phone_number </text>
<text text-anchor="start" x="235.0378" y="-83.9" font-family="Arial" font-size="14.00" fill="#666666">[varchar]</text>
<polygon fill="none" stroke="#000000" points="130,-42.5 130,-72.5 365,-72.5 365,-42.5 130,-42.5"/>
<text text-anchor="start" x="137" y="-53.9" font-family="Arial" font-size="14.00" fill="#000000">adress </text>
<text text-anchor="start" x="182.899" y="-53.9" font-family="Arial" font-size="14.00" fill="#666666">[varchar]</text>
</g>
<!-- public.supplier_goods&#45;&gt;public.suppliers -->
<g id="edge1" class="edge">
<title>public.supplier_goods:supplier_id&#45;&gt;public.suppliers:id</title>
<path fill="none" stroke="#000000" d="M257.6413,-576.8994C177.6004,-567.1419 216.6675,-440.805 268,-367 294.2566,-329.2487 338.7434,-368.7513 365,-331 388.7278,-296.8846 406.5556,-237.5 365,-237.5"/>
<polygon fill="#000000" stroke="#000000" points="258.0168,-576.921 267.7395,-581.9925 263.0084,-577.2105 268,-577.5 268,-577.5 268,-577.5 263.0084,-577.2105 268.2605,-573.0075 258.0168,-576.921 258.0168,-576.921"/>
<text text-anchor="start" x="6.7785" y="-587.5" font-family="Arial" font-size="10.00" fill="#000000">FOREIGN KEY (supplier_id) REFERENCES suppliers(id)</text>
</g>
<!-- public.goods -->
<g id="node3" class="node">
<title>public.goods</title>
<polygon fill="#efefef" stroke="transparent" points="469,-192.5 469,-227.5 681,-227.5 681,-192.5 469,-192.5"/>
<polygon fill="none" stroke="#000000" points="469,-192.5 469,-227.5 681,-227.5 681,-192.5 469,-192.5"/>
<text text-anchor="start" x="475.8561" y="-205.3" font-family="Arial Bold" font-size="18.00" fill="#000000">public.goods</text>
<text text-anchor="start" x="576.8901" y="-205.3" font-family="Arial" font-size="14.00" fill="#000000"> </text>
<text text-anchor="start" x="580.7807" y="-205.3" font-family="Arial" font-size="14.00" fill="#666666">[BASE TABLE]</text>
<polygon fill="none" stroke="#000000" points="469,-162.5 469,-192.5 681,-192.5 681,-162.5 469,-162.5"/>
<text text-anchor="start" x="476" y="-173.9" font-family="Arial" font-size="14.00" fill="#000000">id </text>
<text text-anchor="start" x="490.7798" y="-173.9" font-family="Arial" font-size="14.00" fill="#666666">[integer]</text>
<polygon fill="none" stroke="#000000" points="469,-132.5 469,-162.5 681,-162.5 681,-132.5 469,-132.5"/>
<text text-anchor="start" x="476" y="-143.9" font-family="Arial" font-size="14.00" fill="#000000">name </text>
<text text-anchor="start" x="514.899" y="-143.9" font-family="Arial" font-size="14.00" fill="#666666">[varchar]</text>
<polygon fill="none" stroke="#000000" points="469,-102.5 469,-132.5 681,-132.5 681,-102.5 469,-102.5"/>
<text text-anchor="start" x="476" y="-113.9" font-family="Arial" font-size="14.00" fill="#000000">description </text>
<text text-anchor="start" x="547.568" y="-113.9" font-family="Arial" font-size="14.00" fill="#666666">[varchar]</text>
</g>
<!-- public.supplier_goods&#45;&gt;public.goods -->
<g id="edge2" class="edge">
<title>public.supplier_goods:good_id&#45;&gt;public.goods:id</title>
<path fill="none" stroke="#000000" d="M563.0619,-547.3482C788.7896,-540.3328 477.0659,-292.4671 469,-271 454.3838,-232.0997 427.4444,-177.5 469,-177.5"/>
<polygon fill="#000000" stroke="#000000" points="562.9989,-547.349 552.9321,-543.0005 557.9994,-547.4245 553,-547.5 553,-547.5 553,-547.5 557.9994,-547.4245 553.0679,-551.9995 562.9989,-547.349 562.9989,-547.349"/>
<text text-anchor="start" x="559.5455" y="-557.5" font-family="Arial" font-size="10.00" fill="#000000">FOREIGN KEY (good_id) REFERENCES goods(id)</text>
</g>
</g>
</svg>
