<?xml version="1.0" encoding="UTF-8" standalone="no"?>
<!DOCTYPE svg PUBLIC "-//W3C//DTD SVG 1.1//EN"
 "http://www.w3.org/Graphics/SVG/1.1/DTD/svg11.dtd">
<!-- Generated by graphviz version 2.40.1 (20161225.0304)
 -->
<!-- Title: public.goods Pages: 1 -->
<svg width="579pt" height="562pt"
 viewBox="0.00 0.00 578.50 562.00" xmlns="http://www.w3.org/2000/svg" xmlns:xlink="http://www.w3.org/1999/xlink">
<g id="graph0" class="graph" transform="scale(1 1) rotate(0) translate(4 558)">
<title>public.goods</title>
<polygon fill="#ffffff" stroke="transparent" points="-4,4 -4,-558 574.5,-558 574.5,4 -4,4"/>
<!-- public.goods -->
<g id="node1" class="node">
<title>public.goods</title>
<polygon fill="#efefef" stroke="transparent" points="80.5,-135.5 80.5,-170.5 292.5,-170.5 292.5,-135.5 80.5,-135.5"/>
<polygon fill="none" stroke="#000000" points="80.5,-135.5 80.5,-170.5 292.5,-170.5 292.5,-135.5 80.5,-135.5"/>
<text text-anchor="start" x="87.3561" y="-148.3" font-family="Arial Bold" font-size="18.00" fill="#000000">public.goods</text>
<text text-anchor="start" x="188.3901" y="-148.3" font-family="Arial" font-size="14.00" fill="#000000"> </text>
<text text-anchor="start" x="192.2807" y="-148.3" font-family="Arial" font-size="14.00" fill="#666666">[BASE TABLE]</text>
<polygon fill="none" stroke="#000000" points="80.5,-105.5 80.5,-135.5 292.5,-135.5 292.5,-105.5 80.5,-105.5"/>
<text text-anchor="start" x="87.5" y="-116.9" font-family="Arial" font-size="14.00" fill="#000000">id </text>
<text text-anchor="start" x="102.2798" y="-116.9" font-family="Arial" font-size="14.00" fill="#666666">[integer]</text>
<polygon fill="none" stroke="#000000" points="80.5,-75.5 80.5,-105.5 292.5,-105.5 292.5,-75.5 80.5,-75.5"/>
<text text-anchor="start" x="87.5" y="-86.9" font-family="Arial" font-size="14.00" fill="#000000">name </text>
<text text-anchor="start" x="126.399" y="-86.9" font-family="Arial" font-size="14.00" fill="#666666">[varchar]</text>
<polygon fill="none" stroke="#000000" points="80.5,-45.5 80.5,-75.5 292.5,-75.5 292.5,-45.5 80.5,-45.5"/>
<text text-anchor="start" x="87.5" y="-56.9" font-family="Arial" font-size="14.00" fill="#000000">description </text>
<text text-anchor="start" x="159.068" y="-56.9" font-family="Arial" font-size="14.00" fill="#666666">[varchar]</text>
<polygon fill="none" stroke="#000000" stroke-width="3" points="79,-44.5 79,-172.5 294,-172.5 294,-44.5 79,-44.5"/>
</g>
<!-- public.supplier_goods -->
<g id="node2" class="node">
<title>public.supplier_goods</title>
<polygon fill="#efefef" stroke="transparent" points="43.5,-475.5 43.5,-510.5 328.5,-510.5 328.5,-475.5 43.5,-475.5"/>
<polygon fill="none" stroke="#000000" points="43.5,-475.5 43.5,-510.5 328.5,-510.5 328.5,-475.5 43.5,-475.5"/>
<text text-anchor="start" x="50.3503" y="-488.3" font-family="Arial Bold" font-size="18.00" fill="#000000">public.supplier_goods</text>
<text text-anchor="start" x="224.3959" y="-488.3" font-family="Arial" font-size="14.00" fill="#000000"> </text>
<text text-anchor="start" x="228.2865" y="-488.3" font-family="Arial" font-size="14.00" fill="#666666">[BASE TABLE]</text>
<polygon fill="none" stroke="#000000" points="43.5,-445.5 43.5,-475.5 328.5,-475.5 328.5,-445.5 43.5,-445.5"/>
<text text-anchor="start" x="50.5" y="-456.9" font-family="Arial" font-size="14.00" fill="#000000">supplier_id </text>
<text text-anchor="start" x="122.0666" y="-456.9" font-family="Arial" font-size="14.00" fill="#666666">[integer]</text>
<polygon fill="none" stroke="#000000" points="43.5,-415.5 43.5,-445.5 328.5,-445.5 328.5,-415.5 43.5,-415.5"/>
<text text-anchor="start" x="50.5" y="-426.9" font-family="Arial" font-size="14.00" fill="#000000">good_id </text>
<text text-anchor="start" x="104.1928" y="-426.9" font-family="Arial" font-size="14.00" fill="#666666">[integer]</text>
<polygon fill="none" stroke="#000000" points="43.5,-385.5 43.5,-415.5 328.5,-415.5 328.5,-385.5 43.5,-385.5"/>
<text text-anchor="start" x="50.5" y="-396.9" font-family="Arial" font-size="14.00" fill="#000000">price </text>
<text text-anchor="start" x="84.723" y="-396.9" font-family="Arial" font-size="14.00" fill="#666666">[numeric(2,0)]</text>
<polygon fill="none" stroke="#000000" points="43.5,-355.5 43.5,-385.5 328.5,-385.5 328.5,-355.5 43.5,-355.5"/>
<text text-anchor="start" x="50.5" y="-366.9" font-family="Arial" font-size="14.00" fill="#000000">delivery_time </text>
<text text-anchor="start" x="136.8352" y="-366.9" font-family="Arial" font-size="14.00" fill="#666666">[integer]</text>
<polygon fill="none" stroke="#000000" points="43.5,-325.5 43.5,-355.5 328.5,-355.5 328.5,-325.5 43.5,-325.5"/>
<text text-anchor="start" x="50.5" y="-336.9" font-family="Arial" font-size="14.00" fill="#000000">available </text>
<text text-anchor="start" x="109.6234" y="-336.9" font-family="Arial" font-size="14.00" fill="#666666">[boolean]</text>
<polygon fill="none" stroke="#000000" points="43.5,-295.5 43.5,-325.5 328.5,-325.5 328.5,-295.5 43.5,-295.5"/>
<text text-anchor="start" x="50.5" y="-306.9" font-family="Arial" font-size="14.00" fill="#000000">inserted_on </text>
<text text-anchor="start" x="127.5266" y="-306.9" font-family="Arial" font-size="14.00" fill="#666666">[date]</text>
</g>
<!-- public.supplier_goods&#45;&gt;public.goods -->
<g id="edge1" class="edge">
<title>public.supplier_goods:good_id&#45;&gt;public.goods:id</title>
<path fill="none" stroke="#000000" d="M338.4963,-429.8025C404.8899,-420.0298 377.8019,-309.9754 328.5,-253 255.6203,-168.7771 153.3797,-301.2229 80.5,-217 52.4357,-184.5677 37.6111,-120.5 80.5,-120.5"/>
<polygon fill="#000000" stroke="#000000" points="338.4757,-429.8039 328.1867,-426.0109 333.4879,-430.1519 328.5,-430.5 328.5,-430.5 328.5,-430.5 333.4879,-430.1519 328.8133,-434.9891 338.4757,-429.8039 338.4757,-429.8039"/>
<text text-anchor="start" x="335.0455" y="-440.5" font-family="Arial" font-size="10.00" fill="#000000">FOREIGN KEY (good_id) REFERENCES goods(id)</text>
</g>
</g>
</svg>
