<?xml version="1.0" encoding="UTF-8" standalone="no"?>
<!DOCTYPE svg PUBLIC "-//W3C//DTD SVG 1.1//EN"
 "http://www.w3.org/Graphics/SVG/1.1/DTD/svg11.dtd">
<!-- Generated by graphviz version 2.40.1 (20161225.0304)
 -->
<!-- Title: public.companies Pages: 1 -->
<svg width="641pt" height="622pt"
 viewBox="0.00 0.00 640.50 622.00" xmlns="http://www.w3.org/2000/svg" xmlns:xlink="http://www.w3.org/1999/xlink">
<g id="graph0" class="graph" transform="scale(1 1) rotate(0) translate(4 618)">
<title>public.companies</title>
<polygon fill="#ffffff" stroke="transparent" points="-4,4 -4,-618 636.5,-618 636.5,4 -4,4"/>
<!-- public.companies -->
<g id="node1" class="node">
<title>public.companies</title>
<polygon fill="#efefef" stroke="transparent" points="72.5,-135.5 72.5,-170.5 322.5,-170.5 322.5,-135.5 72.5,-135.5"/>
<polygon fill="none" stroke="#000000" points="72.5,-135.5 72.5,-170.5 322.5,-170.5 322.5,-135.5 72.5,-135.5"/>
<text text-anchor="start" x="79.3598" y="-148.3" font-family="Arial Bold" font-size="18.00" fill="#000000">public.companies</text>
<text text-anchor="start" x="218.3864" y="-148.3" font-family="Arial" font-size="14.00" fill="#000000"> </text>
<text text-anchor="start" x="222.277" y="-148.3" font-family="Arial" font-size="14.00" fill="#666666">[BASE TABLE]</text>
<polygon fill="none" stroke="#000000" points="72.5,-105.5 72.5,-135.5 322.5,-135.5 322.5,-105.5 72.5,-105.5"/>
<text text-anchor="start" x="79.5" y="-116.9" font-family="Arial" font-size="14.00" fill="#000000">id </text>
<text text-anchor="start" x="94.2798" y="-116.9" font-family="Arial" font-size="14.00" fill="#666666">[integer]</text>
<polygon fill="none" stroke="#000000" points="72.5,-75.5 72.5,-105.5 322.5,-105.5 322.5,-75.5 72.5,-75.5"/>
<text text-anchor="start" x="79.5" y="-86.9" font-family="Arial" font-size="14.00" fill="#000000">name </text>
<text text-anchor="start" x="118.399" y="-86.9" font-family="Arial" font-size="14.00" fill="#666666">[varchar]</text>
<polygon fill="none" stroke="#000000" points="72.5,-45.5 72.5,-75.5 322.5,-75.5 322.5,-45.5 72.5,-45.5"/>
<text text-anchor="start" x="79.5" y="-56.9" font-family="Arial" font-size="14.00" fill="#000000">industry </text>
<text text-anchor="start" x="132.3962" y="-56.9" font-family="Arial" font-size="14.00" fill="#666666">[varchar]</text>
<polygon fill="none" stroke="#000000" stroke-width="3" points="71,-44.5 71,-172.5 324,-172.5 324,-44.5 71,-44.5"/>
</g>
<!-- public.users -->
<g id="node2" class="node">
<title>public.users</title>
<polygon fill="#efefef" stroke="transparent" points="43.5,-535.5 43.5,-570.5 350.5,-570.5 350.5,-535.5 43.5,-535.5"/>
<polygon fill="none" stroke="#000000" points="43.5,-535.5 43.5,-570.5 350.5,-570.5 350.5,-535.5 43.5,-535.5"/>
<text text-anchor="start" x="100.3662" y="-548.3" font-family="Arial Bold" font-size="18.00" fill="#000000">public.users</text>
<text text-anchor="start" x="196.38" y="-548.3" font-family="Arial" font-size="14.00" fill="#000000"> </text>
<text text-anchor="start" x="200.2706" y="-548.3" font-family="Arial" font-size="14.00" fill="#666666">[BASE TABLE]</text>
<polygon fill="none" stroke="#000000" points="43.5,-505.5 43.5,-535.5 350.5,-535.5 350.5,-505.5 43.5,-505.5"/>
<text text-anchor="start" x="50.5" y="-516.9" font-family="Arial" font-size="14.00" fill="#000000">id </text>
<text text-anchor="start" x="65.2798" y="-516.9" font-family="Arial" font-size="14.00" fill="#666666">[integer]</text>
<polygon fill="none" stroke="#000000" points="43.5,-475.5 43.5,-505.5 350.5,-505.5 350.5,-475.5 43.5,-475.5"/>
<text text-anchor="start" x="50.5" y="-486.9" font-family="Arial" font-size="14.00" fill="#000000">first_name </text>
<text text-anchor="start" x="119.73" y="-486.9" font-family="Arial" font-size="14.00" fill="#666666">[varchar]</text>
<polygon fill="none" stroke="#000000" points="43.5,-445.5 43.5,-475.5 350.5,-475.5 350.5,-445.5 43.5,-445.5"/>
<text text-anchor="start" x="50.5" y="-456.9" font-family="Arial" font-size="14.00" fill="#000000">last_name </text>
<text text-anchor="start" x="118.9614" y="-456.9" font-family="Arial" font-size="14.00" fill="#666666">[varchar]</text>
<polygon fill="none" stroke="#000000" points="43.5,-415.5 43.5,-445.5 350.5,-445.5 350.5,-415.5 43.5,-415.5"/>
<text text-anchor="start" x="50.5" y="-426.9" font-family="Arial" font-size="14.00" fill="#000000">birthdate </text>
<text text-anchor="start" x="108.852" y="-426.9" font-family="Arial" font-size="14.00" fill="#666666">[date]</text>
<polygon fill="none" stroke="#000000" points="43.5,-385.5 43.5,-415.5 350.5,-415.5 350.5,-385.5 43.5,-385.5"/>
<text text-anchor="start" x="50.5" y="-396.9" font-family="Arial" font-size="14.00" fill="#000000">email_adress </text>
<text text-anchor="start" x="137.6206" y="-396.9" font-family="Arial" font-size="14.00" fill="#666666">[varchar]</text>
<polygon fill="none" stroke="#000000" points="43.5,-355.5 43.5,-385.5 350.5,-385.5 350.5,-355.5 43.5,-355.5"/>
<text text-anchor="start" x="50.5" y="-366.9" font-family="Arial" font-size="14.00" fill="#000000">company_function </text>
<text text-anchor="start" x="167.9824" y="-366.9" font-family="Arial" font-size="14.00" fill="#666666">[varchar]</text>
<polygon fill="none" stroke="#000000" points="43.5,-325.5 43.5,-355.5 350.5,-355.5 350.5,-325.5 43.5,-325.5"/>
<text text-anchor="start" x="50.5" y="-336.9" font-family="Arial" font-size="14.00" fill="#000000">employer_id </text>
<text text-anchor="start" x="130.6206" y="-336.9" font-family="Arial" font-size="14.00" fill="#666666">[integer]</text>
<polygon fill="none" stroke="#000000" points="43.5,-295.5 43.5,-325.5 350.5,-325.5 350.5,-295.5 43.5,-295.5"/>
<text text-anchor="start" x="50.3598" y="-306.9" font-family="Arial" font-size="14.00" fill="#000000">registration_date </text>
<text text-anchor="start" x="158.5" y="-306.9" font-family="Arial" font-size="14.00" fill="#666666">[timestamp without time zone]</text>
</g>
<!-- public.users&#45;&gt;public.companies -->
<g id="edge1" class="edge">
<title>public.users:employer_id&#45;&gt;public.companies:id</title>
<path fill="none" stroke="#000000" d="M360.4394,-338.9137C386.6887,-329.3927 373.6652,-279.3584 350.5,-253 268.2547,-159.4175 154.7453,-310.5825 72.5,-217 44.1872,-184.7844 29.6111,-120.5 72.5,-120.5"/>
<polygon fill="#000000" stroke="#000000" points="360.375,-338.9239 349.7908,-336.0562 355.4375,-339.7119 350.5,-340.5 350.5,-340.5 350.5,-340.5 355.4375,-339.7119 351.2092,-344.9438 360.375,-338.9239 360.375,-338.9239"/>
<text text-anchor="start" x="357.0535" y="-350.5" font-family="Arial" font-size="10.00" fill="#000000">FOREIGN KEY (employer_id) REFERENCES companies(id)</text>
</g>
</g>
</svg>
