<?xml version="1.0" encoding="UTF-8" standalone="no"?>
<!DOCTYPE svg PUBLIC "-//W3C//DTD SVG 1.1//EN"
 "http://www.w3.org/Graphics/SVG/1.1/DTD/svg11.dtd">
<!-- Generated by graphviz version 2.40.1 (20161225.0304)
 -->
<!-- Title: public.users Pages: 1 -->
<svg width="644pt" height="622pt"
 viewBox="0.00 0.00 643.50 622.00" xmlns="http://www.w3.org/2000/svg" xmlns:xlink="http://www.w3.org/1999/xlink">
<g id="graph0" class="graph" transform="scale(1 1) rotate(0) translate(4 618)">
<title>public.users</title>
<polygon fill="#ffffff" stroke="transparent" points="-4,4 -4,-618 639.5,-618 639.5,4 -4,4"/>
<!-- public.users -->
<g id="node1" class="node">
<title>public.users</title>
<polygon fill="#efefef" stroke="transparent" points="46.5,-532.5 46.5,-567.5 353.5,-567.5 353.5,-532.5 46.5,-532.5"/>
<polygon fill="none" stroke="#000000" points="46.5,-532.5 46.5,-567.5 353.5,-567.5 353.5,-532.5 46.5,-532.5"/>
<text text-anchor="start" x="103.3662" y="-545.3" font-family="Arial Bold" font-size="18.00" fill="#000000">public.users</text>
<text text-anchor="start" x="199.38" y="-545.3" font-family="Arial" font-size="14.00" fill="#000000"> </text>
<text text-anchor="start" x="203.2706" y="-545.3" font-family="Arial" font-size="14.00" fill="#666666">[BASE TABLE]</text>
<polygon fill="none" stroke="#000000" points="46.5,-502.5 46.5,-532.5 353.5,-532.5 353.5,-502.5 46.5,-502.5"/>
<text text-anchor="start" x="53.5" y="-513.9" font-family="Arial" font-size="14.00" fill="#000000">id </text>
<text text-anchor="start" x="68.2798" y="-513.9" font-family="Arial" font-size="14.00" fill="#666666">[integer]</text>
<polygon fill="none" stroke="#000000" points="46.5,-472.5 46.5,-502.5 353.5,-502.5 353.5,-472.5 46.5,-472.5"/>
<text text-anchor="start" x="53.5" y="-483.9" font-family="Arial" font-size="14.00" fill="#000000">first_name </text>
<text text-anchor="start" x="122.73" y="-483.9" font-family="Arial" font-size="14.00" fill="#666666">[varchar]</text>
<polygon fill="none" stroke="#000000" points="46.5,-442.5 46.5,-472.5 353.5,-472.5 353.5,-442.5 46.5,-442.5"/>
<text text-anchor="start" x="53.5" y="-453.9" font-family="Arial" font-size="14.00" fill="#000000">last_name </text>
<text text-anchor="start" x="121.9614" y="-453.9" font-family="Arial" font-size="14.00" fill="#666666">[varchar]</text>
<polygon fill="none" stroke="#000000" points="46.5,-412.5 46.5,-442.5 353.5,-442.5 353.5,-412.5 46.5,-412.5"/>
<text text-anchor="start" x="53.5" y="-423.9" font-family="Arial" font-size="14.00" fill="#000000">birthdate </text>
<text text-anchor="start" x="111.852" y="-423.9" font-family="Arial" font-size="14.00" fill="#666666">[date]</text>
<polygon fill="none" stroke="#000000" points="46.5,-382.5 46.5,-412.5 353.5,-412.5 353.5,-382.5 46.5,-382.5"/>
<text text-anchor="start" x="53.5" y="-393.9" font-family="Arial" font-size="14.00" fill="#000000">email_adress </text>
<text text-anchor="start" x="140.6206" y="-393.9" font-family="Arial" font-size="14.00" fill="#666666">[varchar]</text>
<polygon fill="none" stroke="#000000" points="46.5,-352.5 46.5,-382.5 353.5,-382.5 353.5,-352.5 46.5,-352.5"/>
<text text-anchor="start" x="53.5" y="-363.9" font-family="Arial" font-size="14.00" fill="#000000">company_function </text>
<text text-anchor="start" x="170.9824" y="-363.9" font-family="Arial" font-size="14.00" fill="#666666">[varchar]</text>
<polygon fill="none" stroke="#000000" points="46.5,-322.5 46.5,-352.5 353.5,-352.5 353.5,-322.5 46.5,-322.5"/>
<text text-anchor="start" x="53.5" y="-333.9" font-family="Arial" font-size="14.00" fill="#000000">employer_id </text>
<text text-anchor="start" x="133.6206" y="-333.9" font-family="Arial" font-size="14.00" fill="#666666">[integer]</text>
<polygon fill="none" stroke="#000000" points="46.5,-292.5 46.5,-322.5 353.5,-322.5 353.5,-292.5 46.5,-292.5"/>
<text text-anchor="start" x="53.3598" y="-303.9" font-family="Arial" font-size="14.00" fill="#000000">registration_date </text>
<text text-anchor="start" x="161.5" y="-303.9" font-family="Arial" font-size="14.00" fill="#666666">[timestamp without time zone]</text>
<polygon fill="none" stroke="#000000" stroke-width="3" points="44.5,-291.5 44.5,-569.5 354.5,-569.5 354.5,-291.5 44.5,-291.5"/>
</g>
<!-- public.companies -->
<g id="node2" class="node">
<title>public.companies</title>
<polygon fill="#efefef" stroke="transparent" points="75.5,-132.5 75.5,-167.5 325.5,-167.5 325.5,-132.5 75.5,-132.5"/>
<polygon fill="none" stroke="#000000" points="75.5,-132.5 75.5,-167.5 325.5,-167.5 325.5,-132.5 75.5,-132.5"/>
<text text-anchor="start" x="82.3598" y="-145.3" font-family="Arial Bold" font-size="18.00" fill="#000000">public.companies</text>
<text text-anchor="start" x="221.3864" y="-145.3" font-family="Arial" font-size="14.00" fill="#000000"> </text>
<text text-anchor="start" x="225.277" y="-145.3" font-family="Arial" font-size="14.00" fill="#666666">[BASE TABLE]</text>
<polygon fill="none" stroke="#000000" points="75.5,-102.5 75.5,-132.5 325.5,-132.5 325.5,-102.5 75.5,-102.5"/>
<text text-anchor="start" x="82.5" y="-113.9" font-family="Arial" font-size="14.00" fill="#000000">id </text>
<text text-anchor="start" x="97.2798" y="-113.9" font-family="Arial" font-size="14.00" fill="#666666">[integer]</text>
<polygon fill="none" stroke="#000000" points="75.5,-72.5 75.5,-102.5 325.5,-102.5 325.5,-72.5 75.5,-72.5"/>
<text text-anchor="start" x="82.5" y="-83.9" font-family="Arial" font-size="14.00" fill="#000000">name </text>
<text text-anchor="start" x="121.399" y="-83.9" font-family="Arial" font-size="14.00" fill="#666666">[varchar]</text>
<polygon fill="none" stroke="#000000" points="75.5,-42.5 75.5,-72.5 325.5,-72.5 325.5,-42.5 75.5,-42.5"/>
<text text-anchor="start" x="82.5" y="-53.9" font-family="Arial" font-size="14.00" fill="#000000">industry </text>
<text text-anchor="start" x="135.3962" y="-53.9" font-family="Arial" font-size="14.00" fill="#666666">[varchar]</text>
</g>
<!-- public.users&#45;&gt;public.companies -->
<g id="edge1" class="edge">
<title>public.users:employer_id&#45;&gt;public.companies:id</title>
<path fill="none" stroke="#000000" d="M363.4253,-335.9848C391.0459,-326.4604 377.5631,-274.3801 353.5,-247 271.2547,-153.4175 157.7453,-304.5825 75.5,-211 48.0674,-179.7859 33.9444,-117.5 75.5,-117.5"/>
<polygon fill="#000000" stroke="#000000" points="363.3855,-335.9908 352.8209,-333.0515 358.4427,-336.7454 353.5,-337.5 353.5,-337.5 353.5,-337.5 358.4427,-336.7454 354.1791,-341.9485 363.3855,-335.9908 363.3855,-335.9908"/>
<text text-anchor="start" x="360.0535" y="-347.5" font-family="Arial" font-size="10.00" fill="#000000">FOREIGN KEY (employer_id) REFERENCES companies(id)</text>
</g>
</g>
</svg>
