<?xml version="1.0" encoding="UTF-8" standalone="no"?>
<!DOCTYPE svg PUBLIC "-//W3C//DTD SVG 1.1//EN"
 "http://www.w3.org/Graphics/SVG/1.1/DTD/svg11.dtd">
<!-- Generated by graphviz version 2.40.1 (20161225.0304)
 -->
<!-- Title: public.suppliers Pages: 1 -->
<svg width="604pt" height="682pt"
 viewBox="0.00 0.00 603.50 682.00" xmlns="http://www.w3.org/2000/svg" xmlns:xlink="http://www.w3.org/1999/xlink">
<g id="graph0" class="graph" transform="scale(1 1) rotate(0) translate(4 678)">
<title>public.suppliers</title>
<polygon fill="#ffffff" stroke="transparent" points="-4,4 -4,-678 599.5,-678 599.5,4 -4,4"/>
<!-- public.suppliers -->
<g id="node1" class="node">
<title>public.suppliers</title>
<polygon fill="#efefef" stroke="transparent" points="293,-255.5 293,-290.5 528,-290.5 528,-255.5 293,-255.5"/>
<polygon fill="none" stroke="#000000" points="293,-255.5 293,-290.5 528,-290.5 528,-255.5 293,-255.5"/>
<text text-anchor="start" x="299.8658" y="-268.3" font-family="Arial Bold" font-size="18.00" fill="#000000">public.suppliers</text>
<text text-anchor="start" x="423.8804" y="-268.3" font-family="Arial" font-size="14.00" fill="#000000"> </text>
<text text-anchor="start" x="427.771" y="-268.3" font-family="Arial" font-size="14.00" fill="#666666">[BASE TABLE]</text>
<polygon fill="none" stroke="#000000" points="293,-225.5 293,-255.5 528,-255.5 528,-225.5 293,-225.5"/>
<text text-anchor="start" x="300" y="-236.9" font-family="Arial" font-size="14.00" fill="#000000">id </text>
<text text-anchor="start" x="314.7798" y="-236.9" font-family="Arial" font-size="14.00" fill="#666666">[integer]</text>
<polygon fill="none" stroke="#000000" points="293,-195.5 293,-225.5 528,-225.5 528,-195.5 293,-195.5"/>
<text text-anchor="start" x="300" y="-206.9" font-family="Arial" font-size="14.00" fill="#000000">name </text>
<text text-anchor="start" x="338.899" y="-206.9" font-family="Arial" font-size="14.00" fill="#666666">[varchar]</text>
<polygon fill="none" stroke="#000000" points="293,-165.5 293,-195.5 528,-195.5 528,-165.5 293,-165.5"/>
<text text-anchor="start" x="300" y="-176.9" font-family="Arial" font-size="14.00" fill="#000000">industry </text>
<text text-anchor="start" x="352.8962" y="-176.9" font-family="Arial" font-size="14.00" fill="#666666">[varchar]</text>
<polygon fill="none" stroke="#000000" points="293,-135.5 293,-165.5 528,-165.5 528,-135.5 293,-135.5"/>
<text text-anchor="start" x="300" y="-146.9" font-family="Arial" font-size="14.00" fill="#000000">country </text>
<text text-anchor="start" x="349.7896" y="-146.9" font-family="Arial" font-size="14.00" fill="#666666">[varchar]</text>
<polygon fill="none" stroke="#000000" points="293,-105.5 293,-135.5 528,-135.5 528,-105.5 293,-105.5"/>
<text text-anchor="start" x="300" y="-116.9" font-family="Arial" font-size="14.00" fill="#000000">contact_name </text>
<text text-anchor="start" x="391.8106" y="-116.9" font-family="Arial" font-size="14.00" fill="#666666">[varchar]</text>
<polygon fill="none" stroke="#000000" points="293,-75.5 293,-105.5 528,-105.5 528,-75.5 293,-75.5"/>
<text text-anchor="start" x="300" y="-86.9" font-family="Arial" font-size="14.00" fill="#000000">phone_number </text>
<text text-anchor="start" x="398.0378" y="-86.9" font-family="Arial" font-size="14.00" fill="#666666">[varchar]</text>
<polygon fill="none" stroke="#000000" points="293,-45.5 293,-75.5 528,-75.5 528,-45.5 293,-45.5"/>
<text text-anchor="start" x="300" y="-56.9" font-family="Arial" font-size="14.00" fill="#000000">adress </text>
<text text-anchor="start" x="345.899" y="-56.9" font-family="Arial" font-size="14.00" fill="#666666">[varchar]</text>
<polygon fill="none" stroke="#000000" stroke-width="3" points="291,-44.5 291,-292.5 529,-292.5 529,-44.5 291,-44.5"/>
</g>
<!-- public.supplier_goods -->
<g id="node2" class="node">
<title>public.supplier_goods</title>
<polygon fill="#efefef" stroke="transparent" points="268,-595.5 268,-630.5 553,-630.5 553,-595.5 268,-595.5"/>
<polygon fill="none" stroke="#000000" points="268,-595.5 268,-630.5 553,-630.5 553,-595.5 268,-595.5"/>
<text text-anchor="start" x="274.8503" y="-608.3" font-family="Arial Bold" font-size="18.00" fill="#000000">public.supplier_goods</text>
<text text-anchor="start" x="448.8959" y="-608.3" font-family="Arial" font-size="14.00" fill="#000000"> </text>
<text text-anchor="start" x="452.7865" y="-608.3" font-family="Arial" font-size="14.00" fill="#666666">[BASE TABLE]</text>
<polygon fill="none" stroke="#000000" points="268,-565.5 268,-595.5 553,-595.5 553,-565.5 268,-565.5"/>
<text text-anchor="start" x="275" y="-576.9" font-family="Arial" font-size="14.00" fill="#000000">supplier_id </text>
<text text-anchor="start" x="346.5666" y="-576.9" font-family="Arial" font-size="14.00" fill="#666666">[integer]</text>
<polygon fill="none" stroke="#000000" points="268,-535.5 268,-565.5 553,-565.5 553,-535.5 268,-535.5"/>
<text text-anchor="start" x="275" y="-546.9" font-family="Arial" font-size="14.00" fill="#000000">good_id </text>
<text text-anchor="start" x="328.6928" y="-546.9" font-family="Arial" font-size="14.00" fill="#666666">[integer]</text>
<polygon fill="none" stroke="#000000" points="268,-505.5 268,-535.5 553,-535.5 553,-505.5 268,-505.5"/>
<text text-anchor="start" x="275" y="-516.9" font-family="Arial" font-size="14.00" fill="#000000">price </text>
<text text-anchor="start" x="309.223" y="-516.9" font-family="Arial" font-size="14.00" fill="#666666">[numeric(2,0)]</text>
<polygon fill="none" stroke="#000000" points="268,-475.5 268,-505.5 553,-505.5 553,-475.5 268,-475.5"/>
<text text-anchor="start" x="275" y="-486.9" font-family="Arial" font-size="14.00" fill="#000000">delivery_time </text>
<text text-anchor="start" x="361.3352" y="-486.9" font-family="Arial" font-size="14.00" fill="#666666">[integer]</text>
<polygon fill="none" stroke="#000000" points="268,-445.5 268,-475.5 553,-475.5 553,-445.5 268,-445.5"/>
<text text-anchor="start" x="275" y="-456.9" font-family="Arial" font-size="14.00" fill="#000000">available </text>
<text text-anchor="start" x="334.1234" y="-456.9" font-family="Arial" font-size="14.00" fill="#666666">[boolean]</text>
<polygon fill="none" stroke="#000000" points="268,-415.5 268,-445.5 553,-445.5 553,-415.5 268,-415.5"/>
<text text-anchor="start" x="275" y="-426.9" font-family="Arial" font-size="14.00" fill="#000000">inserted_on </text>
<text text-anchor="start" x="352.0266" y="-426.9" font-family="Arial" font-size="14.00" fill="#666666">[date]</text>
</g>
<!-- public.supplier_goods&#45;&gt;public.suppliers -->
<g id="edge1" class="edge">
<title>public.supplier_goods:supplier_id&#45;&gt;public.suppliers:id</title>
<path fill="none" stroke="#000000" d="M258.0054,-578.3288C194.6958,-549.3721 220.7917,-240.5 293,-240.5"/>
<polygon fill="#000000" stroke="#000000" points="258.2279,-578.3771 267.0447,-584.8974 263.114,-579.4385 268,-580.5 268,-580.5 268,-580.5 263.114,-579.4385 268.9553,-576.1026 258.2279,-578.3771 258.2279,-578.3771"/>
<text text-anchor="start" x="6.7785" y="-590.5" font-family="Arial" font-size="10.00" fill="#000000">FOREIGN KEY (supplier_id) REFERENCES suppliers(id)</text>
</g>
</g>
</svg>
