<?xml version="1.0" encoding="UTF-8" standalone="no"?>
<!DOCTYPE svg PUBLIC "-//W3C//DTD SVG 1.1//EN"
 "http://www.w3.org/Graphics/SVG/1.1/DTD/svg11.dtd">
<!-- Generated by graphviz version 2.40.1 (20161225.0304)
 -->
<!-- Title: postgres Pages: 1 -->
<svg width="1545pt" height="736pt"
 viewBox="0.00 0.00 1544.50 736.00" xmlns="http://www.w3.org/2000/svg" xmlns:xlink="http://www.w3.org/1999/xlink">
<g id="graph0" class="graph" transform="scale(1 1) rotate(0) translate(4 732)">
<title>postgres</title>
<polygon fill="#ffffff" stroke="transparent" points="-4,4 -4,-732 1540.5,-732 1540.5,4 -4,4"/>
<!-- public.alembic_version -->
<g id="node1" class="node">
<title>public.alembic_version</title>
<polygon fill="#efefef" stroke="transparent" points="43.5,-544.5 43.5,-579.5 336.5,-579.5 336.5,-544.5 43.5,-544.5"/>
<polygon fill="none" stroke="#000000" points="43.5,-544.5 43.5,-579.5 336.5,-579.5 336.5,-544.5 43.5,-544.5"/>
<text text-anchor="start" x="50.3633" y="-557.3" font-family="Arial Bold" font-size="18.00" fill="#000000">public.alembic_version</text>
<text text-anchor="start" x="232.3829" y="-557.3" font-family="Arial" font-size="14.00" fill="#000000"> </text>
<text text-anchor="start" x="236.2735" y="-557.3" font-family="Arial" font-size="14.00" fill="#666666">[BASE TABLE]</text>
<polygon fill="none" stroke="#000000" points="43.5,-514.5 43.5,-544.5 336.5,-544.5 336.5,-514.5 43.5,-514.5"/>
<text text-anchor="start" x="50.5" y="-525.9" font-family="Arial" font-size="14.00" fill="#000000">version_num </text>
<text text-anchor="start" x="134.514" y="-525.9" font-family="Arial" font-size="14.00" fill="#666666">[varchar(32)]</text>
</g>
<!-- public.companies -->
<g id="node2" class="node">
<title>public.companies</title>
<polygon fill="#efefef" stroke="transparent" points="469.5,-192.5 469.5,-227.5 719.5,-227.5 719.5,-192.5 469.5,-192.5"/>
<polygon fill="none" stroke="#000000" points="469.5,-192.5 469.5,-227.5 719.5,-227.5 719.5,-192.5 469.5,-192.5"/>
<text text-anchor="start" x="476.3598" y="-205.3" font-family="Arial Bold" font-size="18.00" fill="#000000">public.companies</text>
<text text-anchor="start" x="615.3864" y="-205.3" font-family="Arial" font-size="14.00" fill="#000000"> </text>
<text text-anchor="start" x="619.277" y="-205.3" font-family="Arial" font-size="14.00" fill="#666666">[BASE TABLE]</text>
<polygon fill="none" stroke="#000000" points="469.5,-162.5 469.5,-192.5 719.5,-192.5 719.5,-162.5 469.5,-162.5"/>
<text text-anchor="start" x="476.5" y="-173.9" font-family="Arial" font-size="14.00" fill="#000000">id </text>
<text text-anchor="start" x="491.2798" y="-173.9" font-family="Arial" font-size="14.00" fill="#666666">[integer]</text>
<polygon fill="none" stroke="#000000" points="469.5,-132.5 469.5,-162.5 719.5,-162.5 719.5,-132.5 469.5,-132.5"/>
<text text-anchor="start" x="476.5" y="-143.9" font-family="Arial" font-size="14.00" fill="#000000">name </text>
<text text-anchor="start" x="515.399" y="-143.9" font-family="Arial" font-size="14.00" fill="#666666">[varchar]</text>
<polygon fill="none" stroke="#000000" points="469.5,-102.5 469.5,-132.5 719.5,-132.5 719.5,-102.5 469.5,-102.5"/>
<text text-anchor="start" x="476.5" y="-113.9" font-family="Arial" font-size="14.00" fill="#000000">industry </text>
<text text-anchor="start" x="529.3962" y="-113.9" font-family="Arial" font-size="14.00" fill="#666666">[varchar]</text>
</g>
<!-- public.users -->
<g id="node3" class="node">
<title>public.users</title>
<polygon fill="#efefef" stroke="transparent" points="440.5,-649.5 440.5,-684.5 747.5,-684.5 747.5,-649.5 440.5,-649.5"/>
<polygon fill="none" stroke="#000000" points="440.5,-649.5 440.5,-684.5 747.5,-684.5 747.5,-649.5 440.5,-649.5"/>
<text text-anchor="start" x="497.3662" y="-662.3" font-family="Arial Bold" font-size="18.00" fill="#000000">public.users</text>
<text text-anchor="start" x="593.38" y="-662.3" font-family="Arial" font-size="14.00" fill="#000000"> </text>
<text text-anchor="start" x="597.2706" y="-662.3" font-family="Arial" font-size="14.00" fill="#666666">[BASE TABLE]</text>
<polygon fill="none" stroke="#000000" points="440.5,-619.5 440.5,-649.5 747.5,-649.5 747.5,-619.5 440.5,-619.5"/>
<text text-anchor="start" x="447.5" y="-630.9" font-family="Arial" font-size="14.00" fill="#000000">id </text>
<text text-anchor="start" x="462.2798" y="-630.9" font-family="Arial" font-size="14.00" fill="#666666">[integer]</text>
<polygon fill="none" stroke="#000000" points="440.5,-589.5 440.5,-619.5 747.5,-619.5 747.5,-589.5 440.5,-589.5"/>
<text text-anchor="start" x="447.5" y="-600.9" font-family="Arial" font-size="14.00" fill="#000000">first_name </text>
<text text-anchor="start" x="516.73" y="-600.9" font-family="Arial" font-size="14.00" fill="#666666">[varchar]</text>
<polygon fill="none" stroke="#000000" points="440.5,-559.5 440.5,-589.5 747.5,-589.5 747.5,-559.5 440.5,-559.5"/>
<text text-anchor="start" x="447.5" y="-570.9" font-family="Arial" font-size="14.00" fill="#000000">last_name </text>
<text text-anchor="start" x="515.9614" y="-570.9" font-family="Arial" font-size="14.00" fill="#666666">[varchar]</text>
<polygon fill="none" stroke="#000000" points="440.5,-529.5 440.5,-559.5 747.5,-559.5 747.5,-529.5 440.5,-529.5"/>
<text text-anchor="start" x="447.5" y="-540.9" font-family="Arial" font-size="14.00" fill="#000000">birthdate </text>
<text text-anchor="start" x="505.852" y="-540.9" font-family="Arial" font-size="14.00" fill="#666666">[date]</text>
<polygon fill="none" stroke="#000000" points="440.5,-499.5 440.5,-529.5 747.5,-529.5 747.5,-499.5 440.5,-499.5"/>
<text text-anchor="start" x="447.5" y="-510.9" font-family="Arial" font-size="14.00" fill="#000000">email_adress </text>
<text text-anchor="start" x="534.6206" y="-510.9" font-family="Arial" font-size="14.00" fill="#666666">[varchar]</text>
<polygon fill="none" stroke="#000000" points="440.5,-469.5 440.5,-499.5 747.5,-499.5 747.5,-469.5 440.5,-469.5"/>
<text text-anchor="start" x="447.5" y="-480.9" font-family="Arial" font-size="14.00" fill="#000000">company_function </text>
<text text-anchor="start" x="564.9824" y="-480.9" font-family="Arial" font-size="14.00" fill="#666666">[varchar]</text>
<polygon fill="none" stroke="#000000" points="440.5,-439.5 440.5,-469.5 747.5,-469.5 747.5,-439.5 440.5,-439.5"/>
<text text-anchor="start" x="447.5" y="-450.9" font-family="Arial" font-size="14.00" fill="#000000">employer_id </text>
<text text-anchor="start" x="527.6206" y="-450.9" font-family="Arial" font-size="14.00" fill="#666666">[integer]</text>
<polygon fill="none" stroke="#000000" points="440.5,-409.5 440.5,-439.5 747.5,-439.5 747.5,-409.5 440.5,-409.5"/>
<text text-anchor="start" x="447.3598" y="-420.9" font-family="Arial" font-size="14.00" fill="#000000">registration_date </text>
<text text-anchor="start" x="555.5" y="-420.9" font-family="Arial" font-size="14.00" fill="#666666">[timestamp without time zone]</text>
</g>
<!-- public.users&#45;&gt;public.companies -->
<g id="edge1" class="edge">
<title>public.users:employer_id&#45;&gt;public.companies:id</title>
<path fill="none" stroke="#000000" d="M757.6918,-452.8562C783.0094,-443.4088 767.7767,-395.4536 747.5,-367 671.6408,-260.5491 545.3592,-377.4509 469.5,-271 445.3836,-237.1582 427.9444,-177.5 469.5,-177.5"/>
<polygon fill="#000000" stroke="#000000" points="757.3724,-452.9076 746.7834,-450.0574 752.4362,-453.7038 747.5,-454.5 747.5,-454.5 747.5,-454.5 752.4362,-453.7038 748.2166,-458.9426 757.3724,-452.9076 757.3724,-452.9076"/>
<text text-anchor="start" x="754.0535" y="-464.5" font-family="Arial" font-size="10.00" fill="#000000">FOREIGN KEY (employer_id) REFERENCES companies(id)</text>
</g>
<!-- public.goods -->
<g id="node4" class="node">
<title>public.goods</title>
<polygon fill="#efefef" stroke="transparent" points="823.5,-192.5 823.5,-227.5 1035.5,-227.5 1035.5,-192.5 823.5,-192.5"/>
<polygon fill="none" stroke="#000000" points="823.5,-192.5 823.5,-227.5 1035.5,-227.5 1035.5,-192.5 823.5,-192.5"/>
<text text-anchor="start" x="830.3561" y="-205.3" font-family="Arial Bold" font-size="18.00" fill="#000000">public.goods</text>
<text text-anchor="start" x="931.3901" y="-205.3" font-family="Arial" font-size="14.00" fill="#000000"> </text>
<text text-anchor="start" x="935.2807" y="-205.3" font-family="Arial" font-size="14.00" fill="#666666">[BASE TABLE]</text>
<polygon fill="none" stroke="#000000" points="823.5,-162.5 823.5,-192.5 1035.5,-192.5 1035.5,-162.5 823.5,-162.5"/>
<text text-anchor="start" x="830.5" y="-173.9" font-family="Arial" font-size="14.00" fill="#000000">id </text>
<text text-anchor="start" x="845.2798" y="-173.9" font-family="Arial" font-size="14.00" fill="#666666">[integer]</text>
<polygon fill="none" stroke="#000000" points="823.5,-132.5 823.5,-162.5 1035.5,-162.5 1035.5,-132.5 823.5,-132.5"/>
<text text-anchor="start" x="830.5" y="-143.9" font-family="Arial" font-size="14.00" fill="#000000">name </text>
<text text-anchor="start" x="869.399" y="-143.9" font-family="Arial" font-size="14.00" fill="#666666">[varchar]</text>
<polygon fill="none" stroke="#000000" points="823.5,-102.5 823.5,-132.5 1035.5,-132.5 1035.5,-102.5 823.5,-102.5"/>
<text text-anchor="start" x="830.5" y="-113.9" font-family="Arial" font-size="14.00" fill="#000000">description </text>
<text text-anchor="start" x="902.068" y="-113.9" font-family="Arial" font-size="14.00" fill="#666666">[varchar]</text>
</g>
<!-- public.suppliers -->
<g id="node5" class="node">
<title>public.suppliers</title>
<polygon fill="#efefef" stroke="transparent" points="1140.5,-252.5 1140.5,-287.5 1375.5,-287.5 1375.5,-252.5 1140.5,-252.5"/>
<polygon fill="none" stroke="#000000" points="1140.5,-252.5 1140.5,-287.5 1375.5,-287.5 1375.5,-252.5 1140.5,-252.5"/>
<text text-anchor="start" x="1147.3658" y="-265.3" font-family="Arial Bold" font-size="18.00" fill="#000000">public.suppliers</text>
<text text-anchor="start" x="1271.3804" y="-265.3" font-family="Arial" font-size="14.00" fill="#000000"> </text>
<text text-anchor="start" x="1275.271" y="-265.3" font-family="Arial" font-size="14.00" fill="#666666">[BASE TABLE]</text>
<polygon fill="none" stroke="#000000" points="1140.5,-222.5 1140.5,-252.5 1375.5,-252.5 1375.5,-222.5 1140.5,-222.5"/>
<text text-anchor="start" x="1147.5" y="-233.9" font-family="Arial" font-size="14.00" fill="#000000">id </text>
<text text-anchor="start" x="1162.2798" y="-233.9" font-family="Arial" font-size="14.00" fill="#666666">[integer]</text>
<polygon fill="none" stroke="#000000" points="1140.5,-192.5 1140.5,-222.5 1375.5,-222.5 1375.5,-192.5 1140.5,-192.5"/>
<text text-anchor="start" x="1147.5" y="-203.9" font-family="Arial" font-size="14.00" fill="#000000">name </text>
<text text-anchor="start" x="1186.399" y="-203.9" font-family="Arial" font-size="14.00" fill="#666666">[varchar]</text>
<polygon fill="none" stroke="#000000" points="1140.5,-162.5 1140.5,-192.5 1375.5,-192.5 1375.5,-162.5 1140.5,-162.5"/>
<text text-anchor="start" x="1147.5" y="-173.9" font-family="Arial" font-size="14.00" fill="#000000">industry </text>
<text text-anchor="start" x="1200.3962" y="-173.9" font-family="Arial" font-size="14.00" fill="#666666">[varchar]</text>
<polygon fill="none" stroke="#000000" points="1140.5,-132.5 1140.5,-162.5 1375.5,-162.5 1375.5,-132.5 1140.5,-132.5"/>
<text text-anchor="start" x="1147.5" y="-143.9" font-family="Arial" font-size="14.00" fill="#000000">country </text>
<text text-anchor="start" x="1197.2896" y="-143.9" font-family="Arial" font-size="14.00" fill="#666666">[varchar]</text>
<polygon fill="none" stroke="#000000" points="1140.5,-102.5 1140.5,-132.5 1375.5,-132.5 1375.5,-102.5 1140.5,-102.5"/>
<text text-anchor="start" x="1147.5" y="-113.9" font-family="Arial" font-size="14.00" fill="#000000">contact_name </text>
<text text-anchor="start" x="1239.3106" y="-113.9" font-family="Arial" font-size="14.00" fill="#666666">[varchar]</text>
<polygon fill="none" stroke="#000000" points="1140.5,-72.5 1140.5,-102.5 1375.5,-102.5 1375.5,-72.5 1140.5,-72.5"/>
<text text-anchor="start" x="1147.5" y="-83.9" font-family="Arial" font-size="14.00" fill="#000000">phone_number </text>
<text text-anchor="start" x="1245.5378" y="-83.9" font-family="Arial" font-size="14.00" fill="#666666">[varchar]</text>
<polygon fill="none" stroke="#000000" points="1140.5,-42.5 1140.5,-72.5 1375.5,-72.5 1375.5,-42.5 1140.5,-42.5"/>
<text text-anchor="start" x="1147.5" y="-53.9" font-family="Arial" font-size="14.00" fill="#000000">adress </text>
<text text-anchor="start" x="1193.399" y="-53.9" font-family="Arial" font-size="14.00" fill="#666666">[varchar]</text>
</g>
<!-- public.supplier_goods -->
<g id="node6" class="node">
<title>public.supplier_goods</title>
<polygon fill="#efefef" stroke="transparent" points="983.5,-619.5 983.5,-654.5 1268.5,-654.5 1268.5,-619.5 983.5,-619.5"/>
<polygon fill="none" stroke="#000000" points="983.5,-619.5 983.5,-654.5 1268.5,-654.5 1268.5,-619.5 983.5,-619.5"/>
<text text-anchor="start" x="990.3503" y="-632.3" font-family="Arial Bold" font-size="18.00" fill="#000000">public.supplier_goods</text>
<text text-anchor="start" x="1164.3959" y="-632.3" font-family="Arial" font-size="14.00" fill="#000000"> </text>
<text text-anchor="start" x="1168.2865" y="-632.3" font-family="Arial" font-size="14.00" fill="#666666">[BASE TABLE]</text>
<polygon fill="none" stroke="#000000" points="983.5,-589.5 983.5,-619.5 1268.5,-619.5 1268.5,-589.5 983.5,-589.5"/>
<text text-anchor="start" x="990.5" y="-600.9" font-family="Arial" font-size="14.00" fill="#000000">supplier_id </text>
<text text-anchor="start" x="1062.0666" y="-600.9" font-family="Arial" font-size="14.00" fill="#666666">[integer]</text>
<polygon fill="none" stroke="#000000" points="983.5,-559.5 983.5,-589.5 1268.5,-589.5 1268.5,-559.5 983.5,-559.5"/>
<text text-anchor="start" x="990.5" y="-570.9" font-family="Arial" font-size="14.00" fill="#000000">good_id </text>
<text text-anchor="start" x="1044.1928" y="-570.9" font-family="Arial" font-size="14.00" fill="#666666">[integer]</text>
<polygon fill="none" stroke="#000000" points="983.5,-529.5 983.5,-559.5 1268.5,-559.5 1268.5,-529.5 983.5,-529.5"/>
<text text-anchor="start" x="990.5" y="-540.9" font-family="Arial" font-size="14.00" fill="#000000">price </text>
<text text-anchor="start" x="1024.723" y="-540.9" font-family="Arial" font-size="14.00" fill="#666666">[numeric(2,0)]</text>
<polygon fill="none" stroke="#000000" points="983.5,-499.5 983.5,-529.5 1268.5,-529.5 1268.5,-499.5 983.5,-499.5"/>
<text text-anchor="start" x="990.5" y="-510.9" font-family="Arial" font-size="14.00" fill="#000000">delivery_time </text>
<text text-anchor="start" x="1076.8352" y="-510.9" font-family="Arial" font-size="14.00" fill="#666666">[integer]</text>
<polygon fill="none" stroke="#000000" points="983.5,-469.5 983.5,-499.5 1268.5,-499.5 1268.5,-469.5 983.5,-469.5"/>
<text text-anchor="start" x="990.5" y="-480.9" font-family="Arial" font-size="14.00" fill="#000000">available </text>
<text text-anchor="start" x="1049.6234" y="-480.9" font-family="Arial" font-size="14.00" fill="#666666">[boolean]</text>
<polygon fill="none" stroke="#000000" points="983.5,-439.5 983.5,-469.5 1268.5,-469.5 1268.5,-439.5 983.5,-439.5"/>
<text text-anchor="start" x="990.5" y="-450.9" font-family="Arial" font-size="14.00" fill="#000000">inserted_on </text>
<text text-anchor="start" x="1067.5266" y="-450.9" font-family="Arial" font-size="14.00" fill="#666666">[date]</text>
</g>
<!-- public.supplier_goods&#45;&gt;public.goods -->
<g id="edge2" class="edge">
<title>public.supplier_goods:good_id&#45;&gt;public.goods:id</title>
<path fill="none" stroke="#000000" d="M973.3255,-573.8527C910.4629,-565.164 968.8787,-470.7557 983.5,-397 995.2804,-337.5749 1023.7196,-330.4251 1035.5,-271 1043.5807,-230.2377 1077.0556,-177.5 1035.5,-177.5"/>
<polygon fill="#000000" stroke="#000000" points="973.5202,-573.865 983.2142,-578.9909 978.5101,-574.1825 983.5,-574.5 983.5,-574.5 983.5,-574.5 978.5101,-574.1825 983.7858,-570.0091 973.5202,-573.865 973.5202,-573.865"/>
<text text-anchor="start" x="748.0455" y="-584.5" font-family="Arial" font-size="10.00" fill="#000000">FOREIGN KEY (good_id) REFERENCES goods(id)</text>
</g>
<!-- public.supplier_goods&#45;&gt;public.suppliers -->
<g id="edge3" class="edge">
<title>public.supplier_goods:supplier_id&#45;&gt;public.suppliers:id</title>
<path fill="none" stroke="#000000" d="M1278.6906,-603.9213C1357.2613,-594.5176 1314.6211,-472.6724 1268.5,-397 1235.1888,-342.3452 1173.8112,-385.6548 1140.5,-331 1118.8729,-295.5157 1098.9444,-237.5 1140.5,-237.5"/>
<polygon fill="#000000" stroke="#000000" points="1278.4839,-603.9329 1268.2448,-600.0072 1273.492,-604.2165 1268.5,-604.5 1268.5,-604.5 1268.5,-604.5 1273.492,-604.2165 1268.7552,-608.9928 1278.4839,-603.9329 1278.4839,-603.9329"/>
<text text-anchor="start" x="1275.2785" y="-614.5" font-family="Arial" font-size="10.00" fill="#000000">FOREIGN KEY (supplier_id) REFERENCES suppliers(id)</text>
</g>
</g>
</svg>
